<?xml version="1.0" encoding="UTF-8"?> <svg xmlns="http://www.w3.org/2000/svg" width="58" height="58" viewBox="0 0 58 58" fill="none"> <circle cx="28.8462" cy="28.8462" r="28.3462" stroke="#77F94E"></circle> <path d="M28.32 36.2401C27.3467 36.2401 26.38 36.1134 25.42 35.8601C24.46 35.5934 23.6467 35.2201 22.98 34.7401L24.24 32.2601C24.7733 32.6467 25.3933 32.9534 26.1 33.1801C26.8067 33.4067 27.52 33.5201 28.24 33.5201C29.0533 33.5201 29.6933 33.3601 30.16 33.0401C30.6267 32.7201 30.86 32.2801 30.86 31.7201C30.86 31.1867 30.6533 30.7667 30.24 30.4601C29.8267 30.1534 29.16 30.0001 28.24 30.0001H26.76V27.8601L30.66 23.4401L31.02 24.6001H23.68V22.0001H33.48V24.1001L29.6 28.5201L27.96 27.5801H28.9C30.62 27.5801 31.92 27.9667 32.8 28.7401C33.68 29.5134 34.12 30.5067 34.12 31.7201C34.12 32.5067 33.9133 33.2467 33.5 33.9401C33.0867 34.6201 32.4533 35.1734 31.6 35.6001C30.7467 36.0267 29.6533 36.2401 28.32 36.2401Z" fill="white"></path> </svg> 