<?xml version="1.0" encoding="UTF-8"?> <svg xmlns="http://www.w3.org/2000/svg" width="129" height="176" viewBox="0 0 129 176" fill="none"> <path d="M77.3965 0H0C0 13.5226 10.8828 25.2266 23.2911 29.3333V146.666C10.8828 150.773 0 162.477 0 176H77.3965C114.796 176 128.101 160.518 128.101 129.043V46.9567C128.101 15.4821 114.796 0 77.3965 0ZM98.9873 129.066C98.9873 142.654 91.1091 146.666 75.6962 146.666C71.5329 146.666 57.861 146.666 52.4051 146.666V29.3333C58.7752 29.3333 71.5329 29.3333 75.6962 29.3333C91.1091 29.3333 98.9873 33.3461 98.9873 46.9333V129.066Z" fill="#1B75BC"></path> </svg> 