<?xml version="1.0" encoding="UTF-8"?> <svg xmlns="http://www.w3.org/2000/svg" width="337" height="367" viewBox="0 0 337 367" fill="none"> <rect x="65.5" y="139.499" width="182" height="81" rx="40.5" stroke="#77F94E"></rect> <path d="M139.144 186L144.76 173.4H147.64L153.274 186H150.214L145.606 174.876H146.758L142.132 186H139.144ZM141.952 183.3L142.726 181.086H149.206L149.998 183.3H141.952ZM157.03 186V175.11L157.696 175.776H153.016V173.4H163.942V175.776H159.262L159.91 175.11V186H157.03ZM171.555 186.216C170.583 186.216 169.677 186.06 168.837 185.748C168.009 185.424 167.289 184.968 166.677 184.38C166.065 183.792 165.585 183.102 165.237 182.31C164.901 181.518 164.733 180.648 164.733 179.7C164.733 178.752 164.901 177.882 165.237 177.09C165.585 176.298 166.065 175.608 166.677 175.02C167.301 174.432 168.027 173.982 168.855 173.67C169.683 173.346 170.589 173.184 171.573 173.184C172.665 173.184 173.649 173.376 174.525 173.76C175.413 174.132 176.157 174.684 176.757 175.416L174.885 177.144C174.453 176.652 173.973 176.286 173.445 176.046C172.917 175.794 172.341 175.668 171.717 175.668C171.129 175.668 170.589 175.764 170.097 175.956C169.605 176.148 169.179 176.424 168.819 176.784C168.459 177.144 168.177 177.57 167.973 178.062C167.781 178.554 167.685 179.1 167.685 179.7C167.685 180.3 167.781 180.846 167.973 181.338C168.177 181.83 168.459 182.256 168.819 182.616C169.179 182.976 169.605 183.252 170.097 183.444C170.589 183.636 171.129 183.732 171.717 183.732C172.341 183.732 172.917 183.612 173.445 183.372C173.973 183.12 174.453 182.742 174.885 182.238L176.757 183.966C176.157 184.698 175.413 185.256 174.525 185.64C173.649 186.024 172.659 186.216 171.555 186.216Z" fill="white"></path> <line x1="46.2006" y1="102.842" x2="73.2897" y2="137.514" stroke="#E6E8E4" stroke-dasharray="6 6"></line> <line x1="269.567" y1="259.355" x2="247.567" y2="221.25" stroke="#E6E8E4" stroke-dasharray="6 6"></line> <line y1="-0.5" x2="79" y2="-0.5" transform="matrix(0.17406 0.984735 -0.98488 0.173237 118 53)" stroke="#E6E8E4" stroke-dasharray="6 6"></line> <line y1="-0.5" x2="79" y2="-0.5" transform="matrix(-0.17406 -0.984735 0.98488 -0.173237 200 306)" stroke="#E6E8E4" stroke-dasharray="6 6"></line> <line y1="-0.5" x2="79" y2="-0.5" transform="matrix(0.17406 -0.984735 0.98488 0.173237 184 131)" stroke="#E6E8E4" stroke-dasharray="6 6"></line> <line y1="-0.5" x2="79" y2="-0.5" transform="matrix(-0.17406 0.984735 -0.98488 -0.173237 134 228)" stroke="#E6E8E4" stroke-dasharray="6 6"></line> <line x1="268.58" y1="103.334" x2="246.58" y2="141.439" stroke="#E6E8E4" stroke-dasharray="6 6"></line> <line x1="42.6812" y1="255.011" x2="69.7703" y2="220.339" stroke="#E6E8E4" stroke-dasharray="6 6"></line> <path d="M258.154 330H245.846C244.826 330 243.848 330.407 243.127 331.132C242.405 331.856 242 332.839 242 333.864V360.136C242 361.161 242.405 362.144 243.127 362.868C243.848 363.593 244.826 364 245.846 364H258.154C259.174 364 260.152 363.593 260.873 362.868C261.595 362.144 262 361.161 262 360.136V333.864C262 332.839 261.595 331.856 260.873 331.132C260.152 330.407 259.174 330 258.154 330ZM252 362.455C250.723 362.455 249.692 361.419 249.692 360.136C249.692 358.854 250.723 357.818 252 357.818C253.277 357.818 254.308 358.854 254.308 360.136C254.308 361.419 253.277 362.455 252 362.455ZM258.923 356.273H245.077V334.636H258.923V356.273Z" fill="url(#paint0_linear_2755_72)"></path> <path d="M224.625 330.25C224.625 332.537 223.716 334.731 222.099 336.349C220.481 337.966 218.287 338.875 216 338.875C213.713 338.875 211.519 337.966 209.901 336.349C208.284 334.731 207.375 332.537 207.375 330.25C207.375 327.963 208.284 325.769 209.901 324.151C211.519 322.534 213.713 321.625 216 321.625C218.287 321.625 220.481 322.534 222.099 324.151C223.716 325.769 224.625 327.963 224.625 330.25Z" fill="#FAFCF6"></path> <path fill-rule="evenodd" clip-rule="evenodd" d="M193 336C193 329.9 195.423 324.05 199.737 319.737C204.05 315.423 209.9 313 216 313C222.1 313 227.95 315.423 232.263 319.737C236.577 324.05 239 329.9 239 336C239 342.1 236.577 347.95 232.263 352.263C227.95 356.577 222.1 359 216 359C209.9 359 204.05 356.577 199.737 352.263C195.423 347.95 193 342.1 193 336ZM216 315.875C212.21 315.875 208.497 316.946 205.289 318.963C202.081 320.98 199.507 323.862 197.864 327.278C196.222 330.693 195.577 334.503 196.004 338.269C196.432 342.035 197.914 345.603 200.28 348.564C202.321 345.275 206.814 341.75 216 341.75C225.186 341.75 229.676 345.272 231.721 348.564C234.086 345.603 235.568 342.035 235.996 338.269C236.423 334.503 235.778 330.693 234.136 327.278C232.493 323.862 229.919 320.98 226.711 318.963C223.503 316.946 219.79 315.875 216 315.875Z" fill="#FAFCF6"></path> <path d="M333.154 275H320.846C319.826 275 318.848 275.407 318.127 276.132C317.405 276.856 317 277.839 317 278.864V305.136C317 306.161 317.405 307.144 318.127 307.868C318.848 308.593 319.826 309 320.846 309H333.154C334.174 309 335.152 308.593 335.873 307.868C336.595 307.144 337 306.161 337 305.136V278.864C337 277.839 336.595 276.856 335.873 276.132C335.152 275.407 334.174 275 333.154 275ZM327 307.455C325.723 307.455 324.692 306.419 324.692 305.136C324.692 303.854 325.723 302.818 327 302.818C328.277 302.818 329.308 303.854 329.308 305.136C329.308 306.419 328.277 307.455 327 307.455ZM333.923 301.273H320.077V279.636H333.923V301.273Z" fill="url(#paint1_linear_2755_72)"></path> <path d="M299.625 275.25C299.625 277.537 298.716 279.731 297.099 281.349C295.481 282.966 293.287 283.875 291 283.875C288.713 283.875 286.519 282.966 284.901 281.349C283.284 279.731 282.375 277.537 282.375 275.25C282.375 272.963 283.284 270.769 284.901 269.151C286.519 267.534 288.713 266.625 291 266.625C293.287 266.625 295.481 267.534 297.099 269.151C298.716 270.769 299.625 272.963 299.625 275.25Z" fill="#FAFCF6"></path> <path fill-rule="evenodd" clip-rule="evenodd" d="M268 281C268 274.9 270.423 269.05 274.737 264.737C279.05 260.423 284.9 258 291 258C297.1 258 302.95 260.423 307.263 264.737C311.577 269.05 314 274.9 314 281C314 287.1 311.577 292.95 307.263 297.263C302.95 301.577 297.1 304 291 304C284.9 304 279.05 301.577 274.737 297.263C270.423 292.95 268 287.1 268 281ZM291 260.875C287.21 260.875 283.497 261.946 280.289 263.963C277.081 265.98 274.507 268.862 272.864 272.278C271.222 275.693 270.577 279.503 271.004 283.269C271.432 287.035 272.914 290.603 275.28 293.564C277.321 290.275 281.814 286.75 291 286.75C300.186 286.75 304.676 290.272 306.721 293.564C309.086 290.603 310.568 287.035 310.996 283.269C311.423 279.503 310.778 275.693 309.136 272.278C307.493 268.862 304.919 265.98 301.711 263.963C298.503 261.946 294.79 260.875 291 260.875Z" fill="#FAFCF6"></path> <path d="M31.625 275.25C31.625 277.537 30.7163 279.731 29.0988 281.349C27.4813 282.966 25.2875 283.875 23 283.875C20.7125 283.875 18.5187 282.966 16.9012 281.349C15.2837 279.731 14.375 277.537 14.375 275.25C14.375 272.963 15.2837 270.769 16.9012 269.151C18.5187 267.534 20.7125 266.625 23 266.625C25.2875 266.625 27.4813 267.534 29.0988 269.151C30.7163 270.769 31.625 272.963 31.625 275.25Z" fill="#FAFCF6"></path> <path fill-rule="evenodd" clip-rule="evenodd" d="M0 281C0 274.9 2.42321 269.05 6.73654 264.737C11.0499 260.423 16.9 258 23 258C29.1 258 34.9501 260.423 39.2635 264.737C43.5768 269.05 46 274.9 46 281C46 287.1 43.5768 292.95 39.2635 297.263C34.9501 301.577 29.1 304 23 304C16.9 304 11.0499 301.577 6.73654 297.263C2.42321 292.95 0 287.1 0 281ZM23 260.875C19.2101 260.875 15.4973 261.946 12.2889 263.963C9.08051 265.98 6.50694 268.862 4.8644 272.278C3.22186 275.693 2.57711 279.503 3.00437 283.269C3.43163 287.035 4.91353 290.603 7.2795 293.564C9.32075 290.275 13.8144 286.75 23 286.75C32.1856 286.75 36.6764 290.272 38.7205 293.564C41.0865 290.603 42.5684 287.035 42.9956 283.269C43.4229 279.503 42.7781 275.693 41.1356 272.278C39.4931 268.862 36.9195 265.98 33.7111 263.963C30.5027 261.946 26.7899 260.875 23 260.875Z" fill="#FAFCF6"></path> <path d="M53.8696 290.687L49.8255 288.352C49.3108 288.055 49.0431 287.521 49.0663 286.971C49.1667 285.206 48.9896 283.39 48.5032 281.579C48.2892 280.782 48.7662 279.956 49.5632 279.743L54.6351 278.387C55.4322 278.174 56.2594 278.652 56.4734 279.449C60.1272 293.051 52.0605 307.023 38.4532 310.661C37.6562 310.874 36.829 310.396 36.6149 309.599L35.2569 304.543C35.0429 303.747 35.5199 302.92 36.3169 302.707C38.1139 302.227 39.7895 301.469 41.2685 300.499C41.729 300.189 42.3437 300.165 42.84 300.451L46.8842 302.786C50.421 299.59 52.8841 295.345 53.8696 290.687Z" fill="url(#paint2_linear_2755_72)"></path> <path d="M124.625 330.25C124.625 332.537 123.716 334.731 122.099 336.349C120.481 337.966 118.287 338.875 116 338.875C113.713 338.875 111.519 337.966 109.901 336.349C108.284 334.731 107.375 332.537 107.375 330.25C107.375 327.963 108.284 325.769 109.901 324.151C111.519 322.534 113.713 321.625 116 321.625C118.287 321.625 120.481 322.534 122.099 324.151C123.716 325.769 124.625 327.963 124.625 330.25Z" fill="#FAFCF6"></path> <path fill-rule="evenodd" clip-rule="evenodd" d="M93 336C93 329.9 95.4232 324.05 99.7365 319.737C104.05 315.423 109.9 313 116 313C122.1 313 127.95 315.423 132.263 319.737C136.577 324.05 139 329.9 139 336C139 342.1 136.577 347.95 132.263 352.263C127.95 356.577 122.1 359 116 359C109.9 359 104.05 356.577 99.7365 352.263C95.4232 347.95 93 342.1 93 336ZM116 315.875C112.21 315.875 108.497 316.946 105.289 318.963C102.081 320.98 99.5069 323.862 97.8644 327.278C96.2219 330.693 95.5771 334.503 96.0044 338.269C96.4316 342.035 97.9135 345.603 100.28 348.564C102.321 345.275 106.814 341.75 116 341.75C125.186 341.75 129.676 345.272 131.721 348.564C134.086 345.603 135.568 342.035 135.996 338.269C136.423 334.503 135.778 330.693 134.136 327.278C132.493 323.862 129.919 320.98 126.711 318.963C123.503 316.946 119.79 315.875 116 315.875Z" fill="#FAFCF6"></path> <path d="M146.87 345.687L142.825 343.352C142.311 343.055 142.043 342.521 142.066 341.971C142.167 340.206 141.99 338.39 141.503 336.579C141.289 335.782 141.766 334.956 142.563 334.743L147.635 333.387C148.432 333.174 149.259 333.652 149.473 334.449C153.127 348.051 145.06 362.023 131.453 365.661C130.656 365.874 129.829 365.396 129.615 364.599L128.257 359.543C128.043 358.747 128.52 357.92 129.317 357.707C131.114 357.227 132.789 356.469 134.269 355.499C134.729 355.189 135.344 355.165 135.84 355.451L139.884 357.786C143.421 354.59 145.884 350.345 146.87 345.687Z" fill="url(#paint3_linear_2755_72)"></path> <path d="M299.625 74.25C299.625 76.5375 298.716 78.7313 297.099 80.3488C295.481 81.9663 293.287 82.875 291 82.875C288.713 82.875 286.519 81.9663 284.901 80.3488C283.284 78.7313 282.375 76.5375 282.375 74.25C282.375 71.9625 283.284 69.7687 284.901 68.1512C286.519 66.5337 288.713 65.625 291 65.625C293.287 65.625 295.481 66.5337 297.099 68.1512C298.716 69.7687 299.625 71.9625 299.625 74.25Z" fill="#FAFCF6"></path> <path fill-rule="evenodd" clip-rule="evenodd" d="M268 80C268 73.9 270.423 68.0499 274.737 63.7365C279.05 59.4232 284.9 57 291 57C297.1 57 302.95 59.4232 307.263 63.7365C311.577 68.0499 314 73.9 314 80C314 86.1 311.577 91.9501 307.263 96.2635C302.95 100.577 297.1 103 291 103C284.9 103 279.05 100.577 274.737 96.2635C270.423 91.9501 268 86.1 268 80ZM291 59.875C287.21 59.8752 283.497 60.9455 280.289 62.9628C277.081 64.9801 274.507 67.8624 272.864 71.2778C271.222 74.6933 270.577 78.5031 271.004 82.2688C271.432 86.0346 272.914 89.6031 275.28 92.5637C277.321 89.2747 281.814 85.75 291 85.75C300.186 85.75 304.676 89.2719 306.721 92.5637C309.086 89.6031 310.568 86.0346 310.996 82.2688C311.423 78.5031 310.778 74.6933 309.136 71.2778C307.493 67.8624 304.919 64.9801 301.711 62.9628C298.503 60.9455 294.79 59.8752 291 59.875Z" fill="#FAFCF6"></path> <path d="M224.625 17.25C224.625 19.5375 223.716 21.7313 222.099 23.3488C220.481 24.9663 218.287 25.875 216 25.875C213.713 25.875 211.519 24.9663 209.901 23.3488C208.284 21.7313 207.375 19.5375 207.375 17.25C207.375 14.9625 208.284 12.7687 209.901 11.1512C211.519 9.5337 213.713 8.625 216 8.625C218.287 8.625 220.481 9.5337 222.099 11.1512C223.716 12.7687 224.625 14.9625 224.625 17.25Z" fill="#FAFCF6"></path> <path fill-rule="evenodd" clip-rule="evenodd" d="M193 23C193 16.9 195.423 11.0499 199.737 6.73654C204.05 2.42321 209.9 0 216 0C222.1 0 227.95 2.42321 232.263 6.73654C236.577 11.0499 239 16.9 239 23C239 29.1 236.577 34.9501 232.263 39.2635C227.95 43.5768 222.1 46 216 46C209.9 46 204.05 43.5768 199.737 39.2635C195.423 34.9501 193 29.1 193 23ZM216 2.875C212.21 2.8752 208.497 3.94554 205.289 5.96283C202.081 7.98012 199.507 10.8624 197.864 14.2778C196.222 17.6933 195.577 21.5031 196.004 25.2688C196.432 29.0346 197.914 32.6031 200.28 35.5637C202.321 32.2747 206.814 28.75 216 28.75C225.186 28.75 229.676 32.2719 231.721 35.5637C234.086 32.6031 235.568 29.0346 235.996 25.2688C236.423 21.5031 235.778 17.6933 234.136 14.2778C232.493 10.8624 229.919 7.98012 226.711 5.96283C223.503 3.94554 219.79 2.8752 216 2.875Z" fill="#FAFCF6"></path> <path d="M124.625 17.25C124.625 19.5375 123.716 21.7313 122.099 23.3488C120.481 24.9663 118.287 25.875 116 25.875C113.713 25.875 111.519 24.9663 109.901 23.3488C108.284 21.7313 107.375 19.5375 107.375 17.25C107.375 14.9625 108.284 12.7687 109.901 11.1512C111.519 9.5337 113.713 8.625 116 8.625C118.287 8.625 120.481 9.5337 122.099 11.1512C123.716 12.7687 124.625 14.9625 124.625 17.25Z" fill="#FAFCF6"></path> <path fill-rule="evenodd" clip-rule="evenodd" d="M93 23C93 16.9 95.4232 11.0499 99.7365 6.73654C104.05 2.42321 109.9 0 116 0C122.1 0 127.95 2.42321 132.263 6.73654C136.577 11.0499 139 16.9 139 23C139 29.1 136.577 34.9501 132.263 39.2635C127.95 43.5768 122.1 46 116 46C109.9 46 104.05 43.5768 99.7365 39.2635C95.4232 34.9501 93 29.1 93 23ZM116 2.875C112.21 2.8752 108.497 3.94554 105.289 5.96283C102.081 7.98012 99.5069 10.8624 97.8644 14.2778C96.2219 17.6933 95.5771 21.5031 96.0044 25.2688C96.4316 29.0346 97.9135 32.6031 100.28 35.5637C102.321 32.2747 106.814 28.75 116 28.75C125.186 28.75 129.676 32.2719 131.721 35.5637C134.086 32.6031 135.568 29.0346 135.996 25.2688C136.423 21.5031 135.778 17.6933 134.136 14.2778C132.493 10.8624 129.919 7.98012 126.711 5.96283C123.503 3.94554 119.79 2.8752 116 2.875Z" fill="#FAFCF6"></path> <path d="M31.625 74.25C31.625 76.5375 30.7163 78.7313 29.0988 80.3488C27.4813 81.9663 25.2875 82.875 23 82.875C20.7125 82.875 18.5187 81.9663 16.9012 80.3488C15.2837 78.7313 14.375 76.5375 14.375 74.25C14.375 71.9625 15.2837 69.7687 16.9012 68.1512C18.5187 66.5337 20.7125 65.625 23 65.625C25.2875 65.625 27.4813 66.5337 29.0988 68.1512C30.7163 69.7687 31.625 71.9625 31.625 74.25Z" fill="#FAFCF6"></path> <path fill-rule="evenodd" clip-rule="evenodd" d="M0 80C0 73.9 2.42321 68.0499 6.73654 63.7365C11.0499 59.4232 16.9 57 23 57C29.1 57 34.9501 59.4232 39.2635 63.7365C43.5768 68.0499 46 73.9 46 80C46 86.1 43.5768 91.9501 39.2635 96.2635C34.9501 100.577 29.1 103 23 103C16.9 103 11.0499 100.577 6.73654 96.2635C2.42321 91.9501 0 86.1 0 80ZM23 59.875C19.2101 59.8752 15.4973 60.9455 12.2889 62.9628C9.08051 64.9801 6.50694 67.8624 4.8644 71.2778C3.22186 74.6933 2.57711 78.5031 3.00437 82.2688C3.43163 86.0346 4.91353 89.6031 7.2795 92.5637C9.32075 89.2747 13.8144 85.75 23 85.75C32.1856 85.75 36.6764 89.2719 38.7205 92.5637C41.0865 89.6031 42.5684 86.0346 42.9956 82.2688C43.4229 78.5031 42.7781 74.6933 41.1356 71.2778C39.4931 67.8624 36.9195 64.9801 33.7111 62.9628C30.5027 60.9455 26.7899 59.8752 23 59.875Z" fill="#FAFCF6"></path> <defs> <linearGradient id="paint0_linear_2755_72" x1="242" y1="347" x2="262" y2="347" gradientUnits="userSpaceOnUse"> <stop offset="0.123189" stop-color="#32D7ED"></stop> <stop offset="0.463542" stop-color="#77F94E"></stop> <stop offset="0.825029" stop-color="#E4E745"></stop> </linearGradient> <linearGradient id="paint1_linear_2755_72" x1="317" y1="292" x2="337" y2="292" gradientUnits="userSpaceOnUse"> <stop offset="0.123189" stop-color="#32D7ED"></stop> <stop offset="0.463542" stop-color="#77F94E"></stop> <stop offset="0.825029" stop-color="#E4E745"></stop> </linearGradient> <linearGradient id="paint2_linear_2755_72" x1="33.502" y1="298.01" x2="59.5777" y2="291.006" gradientUnits="userSpaceOnUse"> <stop offset="0.123189" stop-color="#32D7ED"></stop> <stop offset="0.463542" stop-color="#77F94E"></stop> <stop offset="0.825029" stop-color="#E4E745"></stop> </linearGradient> <linearGradient id="paint3_linear_2755_72" x1="126.502" y1="353.01" x2="152.578" y2="346.006" gradientUnits="userSpaceOnUse"> <stop offset="0.123189" stop-color="#32D7ED"></stop> <stop offset="0.463542" stop-color="#77F94E"></stop> <stop offset="0.825029" stop-color="#E4E745"></stop> </linearGradient> </defs> </svg> 