<?xml version="1.0" encoding="UTF-8"?> <svg xmlns="http://www.w3.org/2000/svg" width="111" height="118" viewBox="0 0 111 118" fill="none"> <path d="M58.9586 0C18.3793 0 0 30.2429 0 58.8613C0 94.1898 21.7151 117.723 61.3422 117.723C77.0925 117.723 93.2167 116.693 105.158 111.836V82.4058C95.3666 85.6432 79.9668 91.6412 67.5523 91.6412C50.6044 91.6412 36.0108 85.1782 35.0527 70.6336H111C111 64.7474 111 58.9731 111 52.9752C111 25.0455 96.6752 0 58.9586 0ZM35.0527 47.089C36.0049 37.8714 43.1498 23.5445 58.4211 23.5445C75.1412 23.5445 81.7896 38.56 81.7896 47.089H35.0527Z" fill="#1B75BC"></path> </svg> 