<?xml version="1.0" encoding="UTF-8"?> <svg xmlns="http://www.w3.org/2000/svg" width="28" height="36" viewBox="0 0 28 36" fill="none"> <path d="M24.2308 36H3.46154C1.55769 36 0 34.4571 0 32.5714V3.42857C0 1.54286 1.55769 0 3.46154 0H17.5673C18.5192 0 19.3846 0.342857 19.9904 1.02857L26.6538 7.62857C27.3461 8.31429 27.6923 9.17143 27.6923 10.0286V32.5714C27.6923 34.4571 26.1346 36 24.2308 36Z" fill="white"></path> <path d="M20.7722 29.4999H6.92608C6.24578 29.4999 5.69531 28.9479 5.69531 28.2857V17.9999C5.69531 17.3377 6.24578 16.7856 6.92608 16.7856H20.7722C21.4525 16.7856 22.003 17.3377 22.003 17.9999V28.2857C22.003 28.9479 21.4525 29.4999 20.7722 29.4999Z" stroke="#2B2D2E"></path> <line x1="17.5" y1="17" x2="17.5" y2="30" stroke="#2B2D2E"></line> <line x1="10.5" y1="23" x2="10.5" y2="30" stroke="#2B2D2E"></line> <line x1="22" y1="23.5" x2="17" y2="23.5" stroke="#2B2D2E"></line> <line x1="11" y1="23.5" x2="6" y2="23.5" stroke="#2B2D2E"></line> <line x1="22" y1="26.5" x2="17" y2="26.5" stroke="#2B2D2E"></line> <line x1="11" y1="26.5" x2="6" y2="26.5" stroke="#2B2D2E"></line> </svg> 