<?xml version="1.0" encoding="UTF-8"?> <svg xmlns="http://www.w3.org/2000/svg" width="36" height="36" viewBox="0 0 36 36" fill="none"> <rect y="5" width="4" height="25" rx="1" fill="white"></rect> <rect x="5" y="2" width="11" height="32" rx="1" fill="white"></rect> <path fill-rule="evenodd" clip-rule="evenodd" d="M18 5C17.4477 5 17 5.44772 17 6V30C17 30.5523 17.4477 31 18 31H35C35.5523 31 36 30.5523 36 30V6C36 5.44772 35.5523 5 35 5H18ZM33 9H20V14H33V9ZM20 8C19.4477 8 19 8.44772 19 9V14C19 14.5523 19.4477 15 20 15H33C33.5523 15 34 14.5523 34 14V9C34 8.44772 33.5523 8 33 8H20ZM20.5 19C20.7761 19 21 18.7761 21 18.5C21 18.2239 20.7761 18 20.5 18C20.2239 18 20 18.2239 20 18.5C20 18.7761 20.2239 19 20.5 19ZM20.5 20C21.3284 20 22 19.3284 22 18.5C22 17.6716 21.3284 17 20.5 17C19.6716 17 19 17.6716 19 18.5C19 19.3284 19.6716 20 20.5 20ZM21 22.5C21 22.7761 20.7761 23 20.5 23C20.2239 23 20 22.7761 20 22.5C20 22.2239 20.2239 22 20.5 22C20.7761 22 21 22.2239 21 22.5ZM22 22.5C22 23.3284 21.3284 24 20.5 24C19.6716 24 19 23.3284 19 22.5C19 21.6716 19.6716 21 20.5 21C21.3284 21 22 21.6716 22 22.5ZM20.5 27C20.7761 27 21 26.7761 21 26.5C21 26.2239 20.7761 26 20.5 26C20.2239 26 20 26.2239 20 26.5C20 26.7761 20.2239 27 20.5 27ZM20.5 28C21.3284 28 22 27.3284 22 26.5C22 25.6716 21.3284 25 20.5 25C19.6716 25 19 25.6716 19 26.5C19 27.3284 19.6716 28 20.5 28ZM27 18.5C27 18.7761 26.7761 19 26.5 19C26.2239 19 26 18.7761 26 18.5C26 18.2239 26.2239 18 26.5 18C26.7761 18 27 18.2239 27 18.5ZM28 18.5C28 19.3284 27.3284 20 26.5 20C25.6716 20 25 19.3284 25 18.5C25 17.6716 25.6716 17 26.5 17C27.3284 17 28 17.6716 28 18.5ZM26.5 23C26.7761 23 27 22.7761 27 22.5C27 22.2239 26.7761 22 26.5 22C26.2239 22 26 22.2239 26 22.5C26 22.7761 26.2239 23 26.5 23ZM26.5 24C27.3284 24 28 23.3284 28 22.5C28 21.6716 27.3284 21 26.5 21C25.6716 21 25 21.6716 25 22.5C25 23.3284 25.6716 24 26.5 24ZM27 26.5C27 26.7761 26.7761 27 26.5 27C26.2239 27 26 26.7761 26 26.5C26 26.2239 26.2239 26 26.5 26C26.7761 26 27 26.2239 27 26.5ZM28 26.5C28 27.3284 27.3284 28 26.5 28C25.6716 28 25 27.3284 25 26.5C25 25.6716 25.6716 25 26.5 25C27.3284 25 28 25.6716 28 26.5ZM32.5 19C32.7761 19 33 18.7761 33 18.5C33 18.2239 32.7761 18 32.5 18C32.2239 18 32 18.2239 32 18.5C32 18.7761 32.2239 19 32.5 19ZM32.5 20C33.3284 20 34 19.3284 34 18.5C34 17.6716 33.3284 17 32.5 17C31.6716 17 31 17.6716 31 18.5C31 19.3284 31.6716 20 32.5 20ZM33 22.5C33 22.7761 32.7761 23 32.5 23C32.2239 23 32 22.7761 32 22.5C32 22.2239 32.2239 22 32.5 22C32.7761 22 33 22.2239 33 22.5ZM34 22.5C34 23.3284 33.3284 24 32.5 24C31.6716 24 31 23.3284 31 22.5C31 21.6716 31.6716 21 32.5 21C33.3284 21 34 21.6716 34 22.5ZM32.5 27C32.7761 27 33 26.7761 33 26.5C33 26.2239 32.7761 26 32.5 26C32.2239 26 32 26.2239 32 26.5C32 26.7761 32.2239 27 32.5 27ZM32.5 28C33.3284 28 34 27.3284 34 26.5C34 25.6716 33.3284 25 32.5 25C31.6716 25 31 25.6716 31 26.5C31 27.3284 31.6716 28 32.5 28Z" fill="white"></path> </svg> 