<?xml version="1.0" encoding="UTF-8"?> <svg xmlns="http://www.w3.org/2000/svg" width="645" height="115" viewBox="0 0 645 115" fill="none"> <path d="M57.2884 0C25.6113 0 0 25.8403 0 57.8007C0 85.6811 19.2085 108.801 45.1567 114.241V62.2208C45.1567 59.8407 47.1787 57.8007 49.5376 57.4607H56.6144C56.9514 57.4607 57.2884 57.1207 57.2884 56.7807V0ZM46.1677 47.6006C42.1238 47.6006 39.0909 44.2006 39.0909 40.4605C39.0909 36.3805 42.4608 33.3204 46.1677 33.3204C50.2116 33.3204 53.2445 36.7205 53.2445 40.4605C53.2445 44.2006 50.2116 47.6006 46.1677 47.6006ZM601.865 53.3807V31.6204H587.374V89.4211H601.865V65.9608H630.846V89.4211H645V31.6204H630.846V53.3807H601.865ZM392.257 38.0805C389.898 32.9804 385.18 30.2604 380.462 30.2604C375.744 30.2604 371.027 32.9804 368.668 38.0805L345.415 89.4211H360.58L365.635 77.181H395.29L400.345 89.4211H415.509L392.257 38.0805ZM370.353 65.6208L379.114 44.5406C379.451 43.8605 379.788 43.8605 380.125 43.8605C380.462 43.8605 381.136 43.8605 381.136 44.5406L389.898 65.6208H370.353ZM221.74 21.0803C215 21.0803 210.619 24.8203 207.586 31.9604L189.052 75.4809L170.517 31.9604C167.484 24.8203 163.103 21.0803 156.364 21.0803C149.961 21.0803 143.558 25.5003 143.558 35.3604V89.0811H157.712V37.0605L176.583 80.241C178.942 86.3611 183.323 90.1011 189.052 90.1011C195.118 90.1011 199.161 86.3611 201.52 80.241L220.392 37.0605V89.4211H234.545V35.7004C234.545 25.8403 228.143 21.0803 221.74 21.0803ZM259.82 77.181C259.146 77.181 258.472 76.5009 258.472 75.8209V65.6208H294.193V53.7207H258.472V44.8806C258.472 44.2006 259.146 43.5205 259.82 43.5205H295.204V31.2804H252.743C247.688 31.2804 244.318 35.3604 244.318 39.7805V80.241C244.318 84.661 248.025 88.7411 252.743 88.7411H295.204V76.501H259.82V77.181ZM319.13 89.4211V45.2206C319.13 44.5406 319.804 43.8605 320.478 43.8605H355.862V31.6204H313.401C308.346 31.6204 304.976 35.7004 304.976 40.1205V89.0811H319.13V89.4211ZM577.939 60.5208C577.939 40.4605 569.177 30.9404 547.61 30.9404H542.555C520.987 30.9404 512.226 40.4605 512.226 60.5208C512.226 80.241 520.987 90.1011 542.555 90.1011H547.273C569.177 89.7611 577.939 80.241 577.939 60.5208ZM547.273 77.861H542.555C530.76 77.861 526.042 72.4209 526.042 60.5208C526.042 48.9606 530.086 43.1805 542.555 43.1805H547.273C559.404 43.1805 563.785 48.9606 563.785 60.5208C563.785 72.4209 559.404 77.861 547.273 77.861ZM472.461 22.4403H444.154C422.923 22.4403 414.498 33.3204 414.498 52.0206C414.498 55.0807 414.835 57.8007 415.172 60.1808C417.531 73.4409 425.282 81.601 445.164 81.601H451.567V89.0811H465.721V81.601H471.787C491.669 81.601 499.42 73.4409 501.779 60.1808C502.116 57.8007 502.453 55.0807 502.453 52.0206C502.116 33.3204 493.354 22.4403 472.461 22.4403ZM450.893 69.7009H444.49C434.718 69.7009 431.348 65.9608 429.326 60.1808C428.652 58.1407 428.652 55.0807 428.652 52.0206C428.652 39.7805 434.381 34.6804 442.469 34.6804H451.23V69.7009H450.893ZM487.288 60.5208C485.266 66.3008 481.559 70.0409 472.124 70.0409H465.721V34.6804H474.483C482.57 34.6804 488.299 39.7805 488.299 52.0206C487.962 55.4207 487.962 58.1407 487.288 60.5208Z" fill="#8A8A8B"></path> </svg> 