<?xml version="1.0" encoding="UTF-8"?> <svg xmlns="http://www.w3.org/2000/svg" width="39" height="36" viewBox="0 0 39 36" fill="none"> <path d="M37.2 0H1.79914C0.807582 0 0 0.929105 0 2.07198V27.2716C0 28.4145 0.806878 29.3463 1.79914 29.3463H15.2138V34.073H12.2397C11.7076 34.073 11.2762 34.5044 11.2762 35.0365V35.0365C11.2762 35.5686 11.7076 36 12.2397 36H26.7596C27.2917 36 27.7231 35.5686 27.7231 35.0365V35.0365C27.7231 34.5044 27.2917 34.073 26.7596 34.073H23.7854V29.3453H37.2C38.1924 29.3453 39 28.4143 39 27.2707V2.07198C39 0.929105 38.1931 0 37.2 0ZM37.4918 27.2708C37.4918 27.4575 37.3607 27.6086 37.2 27.6086H1.79914C1.63851 27.6086 1.50804 27.4575 1.50804 27.2708V2.07198C1.50804 1.88699 1.63851 1.73674 1.79914 1.73674H37.2C37.3607 1.73674 37.4918 1.88699 37.4918 2.07198V27.2708Z" fill="white"></path> <path fill-rule="evenodd" clip-rule="evenodd" d="M4 3C3.44772 3 3 3.44772 3 4V25C3 25.5523 3.44771 26 4 26H35C35.5523 26 36 25.5523 36 25V4C36 3.44772 35.5523 3 35 3H4ZM20.5364 15.4732C20.5961 15.2449 20.5961 14.9596 20.5961 14.6744C20.5961 14.3891 20.5961 14.1609 20.5364 13.8756L22.2078 12.7344C22.3869 12.6203 22.4466 12.3921 22.3272 12.2209L20.7155 9.59633C20.5961 9.42516 20.4171 9.3681 20.238 9.42516L18.3875 10.281C17.9697 9.93867 17.4921 9.71044 16.9549 9.48222L16.7758 7.54229C16.7758 7.37112 16.5968 7.19995 16.4177 7.19995H13.254C13.0749 7.19995 12.8958 7.37112 12.8958 7.54229L12.6571 9.53927C12.1198 9.71044 11.702 9.99572 11.2245 10.3381L9.374 9.53927C9.19492 9.48222 8.95615 9.53927 8.89646 9.71044L7.28477 12.335C7.16538 12.5062 7.22507 12.7344 7.40415 12.8486L9.07553 13.9897C9.01584 14.2179 9.01584 14.5032 9.01584 14.7885C9.01584 15.0738 9.01584 15.302 9.07553 15.5873L7.40415 16.7284C7.22507 16.8425 7.16538 17.0707 7.28477 17.2419L8.89646 19.8665C9.01584 20.0377 9.19492 20.0947 9.374 20.0377L11.2245 19.2389C11.6423 19.5812 12.1198 19.8095 12.6571 20.0377L12.8361 21.9776C12.8361 22.1488 13.0152 22.32 13.1943 22.32H16.358C16.5371 22.32 16.7161 22.1488 16.7161 21.9776L16.8952 20.0377C17.4324 19.8665 17.8503 19.5812 18.3278 19.2389L20.1783 20.0377C20.3574 20.0947 20.5961 20.0377 20.6558 19.8665L22.2675 17.2419C22.3869 17.0707 22.3272 16.8425 22.1481 16.7284L20.5364 15.4732ZM14.806 17.5272C13.1346 17.5272 11.8214 16.272 11.8214 14.6744C11.8214 13.0768 13.1346 11.8215 14.806 11.8215C16.4774 11.8215 17.7906 13.0768 17.7906 14.6744C17.7906 16.272 16.4774 17.5272 14.806 17.5272ZM29.4196 15.4169C29.5045 15.2894 29.5498 15.1783 29.5952 15.0671L29.5953 15.0671L29.5953 15.0671C29.6407 14.956 29.6861 14.8448 29.7147 14.6945L30.6214 14.4795C30.7283 14.4582 30.7624 14.3748 30.7684 14.2801L30.554 12.8002C30.5319 12.694 30.4589 12.632 30.3519 12.6534L29.3896 12.6838C29.2497 12.465 29.0985 12.2741 28.9191 12.0717L29.1867 11.1761C29.2488 11.1042 29.2153 11.0258 29.131 10.9916L27.7544 10.4327C27.6701 10.3985 27.5631 10.4198 27.5291 10.5032L27.0929 11.3303C26.8341 11.3224 26.5921 11.3537 26.3273 11.4406L25.6601 10.7486C25.5872 10.6866 25.4915 10.6802 25.4126 10.7129L24.2222 11.6225C24.132 11.6831 24.126 11.7778 24.1876 11.8676L24.6857 12.6529L24.5382 13.0141L24.5382 13.0141C24.4928 13.1252 24.4474 13.2364 24.4187 13.3867L23.5121 13.6017C23.4051 13.623 23.371 13.7064 23.3651 13.8011L23.5794 15.281C23.6016 15.3872 23.6745 15.4492 23.7815 15.4278L24.7438 15.3974C24.8837 15.6161 25.035 15.8071 25.2143 16.0095L24.9468 16.905C24.9127 16.9884 24.9743 17.0782 25.0586 17.1124L26.4352 17.6713C26.5195 17.7055 26.6265 17.6842 26.6606 17.6008L27.0967 16.7737C27.3555 16.7816 27.5975 16.7503 27.8623 16.6634L28.5295 17.3554C28.6025 17.4174 28.6981 17.4238 28.777 17.3911L29.9674 16.4815C30.0576 16.4209 30.0636 16.3262 30.002 16.2364L29.4196 15.4169ZM26.4992 15.4298C25.7126 15.1105 25.3442 14.2483 25.662 13.4703C25.9797 12.6923 26.8475 12.332 27.6342 12.6514C28.4208 12.9707 28.7892 13.8329 28.4715 14.6109C28.1537 15.3888 27.2859 15.7492 26.4992 15.4298Z" fill="white"></path> </svg> 