<?xml version="1.0" encoding="UTF-8"?> <svg xmlns="http://www.w3.org/2000/svg" width="58" height="58" viewBox="0 0 58 58" fill="none"> <circle cx="28.8462" cy="28.8462" r="28.3462" stroke="#77F94E"></circle> <path d="M23.66 36.0001V33.9001L29.06 28.8001C29.4867 28.4134 29.8 28.0667 30 27.7601C30.2 27.4534 30.3333 27.1734 30.4 26.9201C30.48 26.6667 30.52 26.4334 30.52 26.2201C30.52 25.6601 30.3267 25.2334 29.94 24.9401C29.5667 24.6334 29.0133 24.4801 28.28 24.4801C27.6933 24.4801 27.1467 24.5934 26.64 24.8201C26.1467 25.0467 25.7267 25.4001 25.38 25.8801L23.02 24.3601C23.5533 23.5601 24.3 22.9267 25.26 22.4601C26.22 21.9934 27.3267 21.7601 28.58 21.7601C29.62 21.7601 30.5267 21.9334 31.3 22.2801C32.0867 22.6134 32.6933 23.0867 33.12 23.7001C33.56 24.3134 33.78 25.0467 33.78 25.9001C33.78 26.3534 33.72 26.8067 33.6 27.2601C33.4933 27.7001 33.2667 28.1667 32.92 28.6601C32.5867 29.1534 32.0933 29.7067 31.44 30.3201L26.96 34.5401L26.34 33.3601H34.24V36.0001H23.66Z" fill="white"></path> </svg> 