<?xml version="1.0" encoding="UTF-8"?> <svg xmlns="http://www.w3.org/2000/svg" width="117" height="118" viewBox="0 0 117 118" fill="none"> <path d="M68.6022 0.876087C59.0375 -0.803706 49.0751 -0.0610602 39.8732 3.04508C16.6957 10.8959 0 32.9513 0 58.9439C0 91.4847 26.196 117.884 58.4993 117.884C90.8085 117.884 116.999 91.4847 116.999 58.9439C116.999 29.8511 96.1027 5.70328 68.6022 0.876087ZM58.4993 88.4139C42.3594 88.4139 29.2497 75.2055 29.2497 58.9439C29.2497 45.9594 37.6092 34.9081 49.1804 30.9945C53.7843 29.4385 58.7567 29.073 63.5537 29.8982C77.3069 32.3147 87.749 44.4093 87.749 58.9439C87.749 75.2055 74.6451 88.4139 58.4993 88.4139Z" fill="#1B75BC"></path> </svg> 