<?xml version="1.0" encoding="UTF-8"?> <svg xmlns="http://www.w3.org/2000/svg" width="134" height="130" viewBox="0 0 134 130" fill="none"> <path d="M133.998 64.569C133.998 39.3401 111.551 18.2789 81.5642 13.0312V0H52.4341V13.0312C22.4476 18.2848 0 39.3401 0 64.569C0 89.7979 22.4476 110.859 52.4341 116.107V129.138H81.5642V116.107C111.551 110.859 133.998 89.7979 133.998 64.569ZM29.1301 64.569C29.1301 52.3713 38.7488 41.9053 52.4341 37.4794V91.6586C38.7488 87.2327 29.1301 76.7667 29.1301 64.569ZM81.5642 91.6586V37.4794C95.2495 41.9053 104.868 52.3713 104.868 64.569C104.868 76.7667 95.2495 87.2327 81.5642 91.6586Z" fill="#1B75BC"></path> </svg> 