<?xml version="1.0" encoding="UTF-8"?> <svg xmlns="http://www.w3.org/2000/svg" width="63" height="116" viewBox="0 0 63 116" fill="none"> <path d="M12.5326 0V59.8061C12.5326 62.5401 10.5003 64.5906 7.79055 64.5906H0.677429C0.33871 64.5906 0 64.9323 0 65.2741V115.511C1.6936 115.511 3.38719 115.853 5.41951 115.853C37.2592 115.853 63.0019 89.88 63.0019 57.7556C63.0019 28.0234 40.9851 3.41749 12.5326 0ZM11.1778 89.5383C7.11311 89.5383 4.06463 86.1208 4.06463 82.3615C4.06463 78.2605 7.45183 75.1848 11.1778 75.1848C15.2424 75.1848 18.2909 78.6023 18.2909 82.3615C18.6296 86.1208 15.2424 89.5383 11.1778 89.5383ZM28.1137 89.5383C24.0491 89.5383 21.0006 86.1208 21.0006 82.3615C21.0006 78.2605 24.3878 75.1848 28.1137 75.1848C32.1784 75.1848 35.2269 78.6023 35.2269 82.3615C35.2269 86.1208 32.1784 89.5383 28.1137 89.5383ZM45.0497 89.5383C40.9851 89.5383 37.9366 86.1208 37.9366 82.3615C37.9366 78.2605 41.3238 75.1848 45.0497 75.1848C49.1144 75.1848 52.1629 78.6023 52.1629 82.3615C52.1629 86.1208 49.1144 89.5383 45.0497 89.5383Z" fill="#8A8A8B"></path> </svg> 